<?xml version="1.0" encoding="utf-8"?><svg xmlns="http://www.w3.org/2000/svg" xmlns:xlink="http://www.w3.org/1999/xlink"><symbol viewBox="329.775 439.999 320.426 100.002" id="airbnb" xmlns="http://www.w3.org/2000/svg"><path d="M498.65 465.125c0 3.604-2.904 6.506-6.508 6.506s-6.506-2.902-6.506-6.506 2.803-6.506 6.506-6.506c3.706.1 6.508 3.003 6.508 6.506zm-26.828 13.114v1.602s-3.102-4.006-9.709-4.006c-10.91 0-19.42 8.309-19.42 19.82 0 11.412 8.41 19.82 19.42 19.82 6.707 0 9.709-4.104 9.709-4.104v1.701c0 .801.602 1.4 1.402 1.4h8.107v-37.639h-8.107c-.8.003-1.402.705-1.402 1.406zm0 24.123c-1.5 2.203-4.504 4.105-8.107 4.105-6.406 0-11.312-4.004-11.312-10.812 0-6.807 4.906-10.811 11.312-10.811 3.504 0 6.707 2.002 8.107 4.104v13.414zm15.516-25.526h9.609v37.639h-9.609v-37.639zm143.545-1.002c-6.607 0-9.711 4.006-9.711 4.006v-21.121h-9.609v55.756h8.109c.801 0 1.4-.701 1.4-1.402v-1.701s3.104 4.104 9.709 4.104c10.912 0 19.42-8.406 19.42-19.818s-8.508-19.824-19.318-19.824zm-1.602 30.532c-3.705 0-6.607-1.9-8.109-4.104v-13.414c1.502-2.002 4.705-4.104 8.109-4.104 6.406 0 11.311 4.004 11.311 10.811s-4.904 10.811-11.311 10.811zm-22.722-14.213v22.422h-9.611v-21.322c0-6.205-2.002-8.709-7.404-8.709-2.902 0-5.906 1.502-7.811 3.705v26.227h-9.607v-37.639h7.605c.801 0 1.402.701 1.402 1.402v1.602c2.803-2.904 6.506-4.006 10.209-4.006 4.205 0 7.709 1.203 10.512 3.605 3.402 2.803 4.705 6.406 4.705 12.713zm-57.76-16.319c-6.605 0-9.709 4.006-9.709 4.006v-21.121h-9.609v55.756h8.107c.801 0 1.402-.701 1.402-1.402v-1.701s3.104 4.104 9.709 4.104c10.912 0 19.42-8.406 19.42-19.818.1-11.413-8.408-19.824-19.32-19.824zm-1.602 30.532c-3.703 0-6.605-1.9-8.107-4.104v-13.414c1.502-2.002 4.705-4.104 8.107-4.104 6.408 0 11.312 4.004 11.312 10.811s-4.904 10.811-11.312 10.811zm-26.025-30.532c2.902 0 4.404.502 4.404.502v8.908s-8.008-2.703-13.012 3.004v26.326h-9.611v-37.738h8.109c.801 0 1.4.701 1.4 1.402v1.602c1.804-2.103 5.708-4.006 8.71-4.006zm-99.799 35.237c-.5-1.201-1.001-2.502-1.501-3.604-.802-1.801-1.603-3.504-2.302-5.105l-.1-.1c-6.908-15.016-14.314-30.23-22.123-45.244l-.3-.602a196.953 196.953 0 0 1-2.401-4.705c-1.002-1.803-2.002-3.703-3.604-5.506-3.203-4.004-7.808-6.207-12.712-6.207-5.006 0-9.51 2.203-12.812 6.006-1.502 1.801-2.604 3.703-3.604 5.506a217.271 217.271 0 0 1-2.401 4.705l-.301.602c-7.708 15.014-15.215 30.229-22.122 45.244l-.101.199c-.7 1.604-1.502 3.305-2.303 5.105-.5 1.102-1 2.303-1.5 3.604-1.302 3.703-1.703 7.207-1.201 10.812 1.101 7.508 6.105 13.812 13.013 16.617 2.603 1.102 5.306 1.602 8.108 1.602.801 0 1.801-.1 2.603-.201 3.304-.4 6.707-1.5 10.011-3.402 4.104-2.303 8.008-5.605 12.412-10.41 4.404 4.805 8.408 8.107 12.412 10.41 3.305 1.902 6.707 3.002 10.01 3.402.801.102 1.803.201 2.604.201 2.803 0 5.605-.5 8.107-1.602 7.008-2.805 11.912-9.209 13.014-16.617.795-3.503.395-7.005-.906-10.71zm-45.144 5.205c-5.406-6.807-8.91-13.213-10.11-18.617-.5-2.303-.601-4.305-.3-6.107.199-1.602.801-3.004 1.602-4.205 1.902-2.701 5.105-4.404 8.809-4.404 3.705 0 7.008 1.602 8.81 4.404.801 1.201 1.401 2.604 1.603 4.205.299 1.803.199 3.904-.301 6.107-1.205 5.304-4.709 11.711-10.113 18.617zm39.938 4.705c-.7 5.205-4.204 9.711-9.108 11.713-2.402 1-5.006 1.301-7.607 1-2.502-.301-5.006-1.102-7.607-2.602-3.604-2.004-7.207-5.105-11.412-9.711 6.606-8.107 10.61-15.516 12.112-22.121.701-3.104.802-5.906.5-8.51-.399-2.502-1.301-4.805-2.702-6.807-3.105-4.506-8.311-7.107-14.115-7.107s-11.01 2.703-14.113 7.107c-1.401 2.002-2.303 4.305-2.703 6.807-.4 2.604-.301 5.506.5 8.51 1.501 6.605 5.605 14.113 12.111 22.221-4.104 4.605-7.808 7.709-11.412 9.711-2.603 1.502-5.104 2.303-7.606 2.602-2.702.301-5.306-.1-7.608-1-4.904-2.002-8.408-6.508-9.108-11.713-.3-2.502-.101-5.004.901-7.807.299-1.002.801-2.002 1.301-3.203.701-1.602 1.5-3.305 2.302-5.006l.101-.199c6.906-14.916 14.313-30.131 22.021-44.945l.3-.602c.802-1.5 1.603-3.102 2.403-4.604.801-1.602 1.701-3.104 2.803-4.406 2.102-2.4 4.904-3.703 8.008-3.703s5.906 1.303 8.008 3.703c1.102 1.305 2.002 2.807 2.803 4.406.802 1.502 1.603 3.104 2.402 4.604l.301.602a1325.424 1325.424 0 0 1 21.922 45.045v.1c.802 1.604 1.502 3.404 2.303 5.008.5 1.199 1.001 2.199 1.301 3.201.799 2.6 1.099 5.104.698 7.706z"/></symbol><symbol viewBox="0 0 228.538 228.538" id="bathtub" xmlns="http://www.w3.org/2000/svg"><path d="M228.538 116.279c0-10.345-8.417-18.762-18.763-18.762H31.487V36.535c0-7.02 5.711-12.731 12.731-12.731h3.333a12.75 12.75 0 0 1 9.066 3.795l-.565.565c-9.489 9.489-9.489 24.928 0 34.418l3.219 3.219a7.246 7.246 0 0 0 5.14 2.129c1.861 0 3.72-.709 5.14-2.129l31.782-31.782a7.27 7.27 0 0 0 0-10.279l-3.219-3.219c-4.596-4.597-10.708-7.128-17.208-7.128a24.155 24.155 0 0 0-13.719 4.233 27.297 27.297 0 0 0-19.635-8.359h-3.333c-15.036 0-27.269 12.232-27.269 27.269V97.61C7.452 98.525 0 106.548 0 116.28c0 7.959 4.99 14.76 12 17.481v23.956c0 21.129 15.039 38.812 34.975 42.91l-6.236 6.236a7.268 7.268 0 1 0 10.28 10.278l15.628-15.62h95.24l15.633 15.62a7.243 7.243 0 0 0 5.14 2.129 7.268 7.268 0 0 0 5.14-12.407l-6.236-6.236c19.938-4.098 34.976-21.78 34.976-42.91v-23.956c7.007-2.723 11.998-9.522 11.998-17.482zM80.906 27.929c1.686 0 3.306.422 4.74 1.217L64.683 50.109c-2.055-3.725-1.505-8.513 1.65-11.667l7.644-7.644a9.738 9.738 0 0 1 6.929-2.869zm-62.143 84.126h191.012a4.23 4.23 0 0 1 4.226 4.226 4.23 4.23 0 0 1-4.226 4.225H18.763a4.23 4.23 0 0 1-4.225-4.225 4.23 4.23 0 0 1 4.225-4.226zM202 157.716c0 16.138-13.131 29.268-29.271 29.268H55.808c-16.14 0-29.271-13.129-29.271-29.268v-22.465H202v22.465z"/><path d="M92.059 82.698a3.51 3.51 0 0 0 2.491 1.032 3.522 3.522 0 0 0 2.491-6.014l-3.55-3.55a3.522 3.522 0 1 0-4.982 4.982l3.55 3.55zm10.649-3.551l3.55 3.55c.688.688 1.589 1.032 2.491 1.032s1.804-.344 2.492-1.032a3.525 3.525 0 0 0 0-4.983l-3.55-3.55a3.524 3.524 0 0 0-4.983 4.983zM89.941 63.515l-3.55-3.55a3.522 3.522 0 1 0-4.982 4.982l3.55 3.55a3.51 3.51 0 0 0 2.491 1.032 3.522 3.522 0 0 0 2.491-6.014zm10.65-3.55a3.522 3.522 0 1 0-4.982 4.982l3.55 3.55a3.51 3.51 0 0 0 2.491 1.032 3.522 3.522 0 0 0 2.491-6.014l-3.55-3.55zm-5.196-14.413a3.525 3.525 0 0 0 0 4.983l3.55 3.55c.688.688 1.589 1.032 2.491 1.032s1.804-.344 2.492-1.032a3.525 3.525 0 0 0 0-4.983l-3.55-3.55a3.524 3.524 0 0 0-4.983 0zm17.276 18.699a3.51 3.51 0 0 0 2.491 1.032 3.525 3.525 0 0 0 2.492-6.015l-3.55-3.55a3.524 3.524 0 0 0-4.983 4.983l3.55 3.55z"/></symbol><symbol viewBox="0 0 482.924 482.924" id="bed" xmlns="http://www.w3.org/2000/svg"><path d="M54.979 180.626c0-25.204 20.505-45.71 45.71-45.71h102.608c15.933 0 29.981 8.2 38.165 20.595 8.185-12.396 22.232-20.595 38.165-20.595h102.609c25.204 0 45.709 20.506 45.709 45.71v2.105h11.443v-44.574c0-27.66-22.503-50.163-50.163-50.163H93.698c-27.66 0-50.163 22.503-50.163 50.163v44.574h11.443v-2.105zm408.733 23.45H19.211C8.618 204.076 0 212.694 0 223.287v111.524c0 10.593 8.618 19.211 19.211 19.211h7.997l-9.449 26.668c-1.969 5.556.94 11.656 6.495 13.624 1.179.417 2.382.616 3.565.616 4.393 0 8.509-2.734 10.06-7.112l11.975-33.797H433.07l11.975 33.797c1.551 4.378 5.666 7.112 10.06 7.112 1.183 0 2.386-.199 3.565-.616 5.556-1.969 8.464-8.069 6.495-13.624l-9.449-26.668h7.997c10.593 0 19.211-8.618 19.211-19.211V223.287c0-10.593-8.618-19.211-19.212-19.211z"/><path d="M279.627 156.262c-13.434 0-24.364 10.929-24.364 24.363v2.105h151.336v-2.105c0-13.434-10.929-24.363-24.363-24.363H279.627zm-178.938 0c-13.435 0-24.364 10.93-24.364 24.364v2.104h151.336v-2.105c0-13.434-10.929-24.363-24.364-24.363H100.689z"/></symbol><symbol viewBox="0 0 60 60" id="calendar" xmlns="http://www.w3.org/2000/svg"><path d="M57 4h-7V1a1 1 0 0 0-1-1h-7a1 1 0 0 0-1 1v3H19V1a1 1 0 0 0-1-1h-7a1 1 0 0 0-1 1v3H3a1 1 0 0 0-1 1v54a1 1 0 0 0 1 1h54a1 1 0 0 0 1-1V5a1 1 0 0 0-1-1zM43 2h5v6h-5V2zM12 2h5v6h-5V2zM4 6h6v3a1 1 0 0 0 1 1h7a1 1 0 0 0 1-1V6h22v3a1 1 0 0 0 1 1h7a1 1 0 0 0 1-1V6h6v9H4V6zm0 52V17h52v41H4z" data-original="#000000" class="adactive-path" data-old_color="#8fb7f7"/><path d="M38 23H11v29h38V23H38zm-7 2h7v7h-7v-7zm7 16h-7v-7h7v7zm-16-7h7v7h-7v-7zm0-9h7v7h-7v-7zm-9 0h7v7h-7v-7zm0 9h7v7h-7v-7zm7 16h-7v-7h7v7zm9 0h-7v-7h7v7zm9 0h-7v-7h7v7zm9 0h-7v-7h7v7zm0-9h-7v-7h7v7zm0-16v7h-7v-7h7z" data-original="#000000" class="adactive-path" data-old_color="#8fb7f7"/></symbol><symbol viewBox="0 0 129 129" id="d-arrow" xmlns="http://www.w3.org/2000/svg"><path d="M121.3 34.6c-1.6-1.6-4.2-1.6-5.8 0l-51 51.1-51.1-51.1c-1.6-1.6-4.2-1.6-5.8 0-1.6 1.6-1.6 4.2 0 5.8l53.9 53.9c.8.8 1.8 1.2 2.9 1.2 1 0 2.1-.4 2.9-1.2l53.9-53.9c1.7-1.6 1.7-4.2.1-5.8z"/></symbol><symbol viewBox="0 0 512 512" id="door" xmlns="http://www.w3.org/2000/svg"><path data-original="#25B6D2" d="M407.396 462.747H271.282V446.74h120.107V65.252H271.282V49.245h136.114z"/><path data-original="#25B6D2" d="M283.808 512l-179.204-56.024V56.024L283.808 0z"/><ellipse cx="245.151" cy="248.745" rx="16.007" ry="18.064" data-original="#FFFFFF" class="afactive-path" data-old_color="#ffffff" opacity=".5"/></symbol><symbol viewBox="0 0 129 129" id="down-arrow-lang" xmlns="http://www.w3.org/2000/svg"><path d="M121.3 34.6c-1.6-1.6-4.2-1.6-5.8 0l-51 51.1-51.1-51.1c-1.6-1.6-4.2-1.6-5.8 0-1.6 1.6-1.6 4.2 0 5.8l53.9 53.9c.8.8 1.8 1.2 2.9 1.2 1 0 2.1-.4 2.9-1.2l53.9-53.9c1.7-1.6 1.7-4.2.1-5.8z"/></symbol><symbol viewBox="0 0 129 129" id="down-arrow-search" xmlns="http://www.w3.org/2000/svg"><path d="M121.3 34.6c-1.6-1.6-4.2-1.6-5.8 0l-51 51.1-51.1-51.1c-1.6-1.6-4.2-1.6-5.8 0-1.6 1.6-1.6 4.2 0 5.8l53.9 53.9c.8.8 1.8 1.2 2.9 1.2 1 0 2.1-.4 2.9-1.2l53.9-53.9c1.7-1.6 1.7-4.2.1-5.8z"/></symbol><symbol viewBox="0 0 512 512" id="en" xmlns="http://www.w3.org/2000/svg"><path d="M0 85.333h15v15H0zM288 85.33h-64v138.666H0v64h224v138.666h64V287.996h224v-64H288z"/><path d="M393.785 315.358L512 381.034v-65.676zm-82.133 0L512 426.662v-31.474l-143.693-79.83zm146.982 111.304l-146.982-81.664v81.664z"/><path d="M311.652 315.358L512 426.662v-31.474l-143.693-79.83z"/><path d="M311.652 315.358L512 426.662v-31.474l-143.693-79.83zM90.341 315.356L0 365.546v-50.19zm110.007 14.154v97.151H25.491zM143.693 315.358L0 395.188v31.474l200.348-111.304zM118.215 196.634L0 130.958v65.676zm82.133 0L0 85.33v31.474l143.693 79.83zM53.366 85.33l146.982 81.664V85.33z"/><path d="M200.348 196.634L0 85.33v31.474l143.693 79.83z"/><path d="M200.348 196.634L0 85.33v31.474l143.693 79.83zM421.659 196.636L512 146.446v50.19zm-110.007-14.154V85.331h174.857zM368.307 196.634L512 116.804V85.33L311.652 196.634z"/></symbol><symbol viewBox="0 0 511.626 511.626" id="env" xmlns="http://www.w3.org/2000/svg"><path d="M49.106 178.729c6.472 4.567 25.981 18.131 58.528 40.685 32.548 22.554 57.482 39.92 74.803 52.099 1.903 1.335 5.946 4.237 12.131 8.71 6.186 4.476 11.326 8.093 15.416 10.852 4.093 2.758 9.041 5.852 14.849 9.277 5.806 3.422 11.279 5.996 16.418 7.7 5.14 1.718 9.898 2.569 14.275 2.569h.575c4.377 0 9.137-.852 14.277-2.569 5.137-1.704 10.615-4.281 16.416-7.7 5.804-3.429 10.752-6.52 14.845-9.277 4.093-2.759 9.229-6.376 15.417-10.852 6.184-4.477 10.232-7.375 12.135-8.71 17.508-12.179 62.051-43.11 133.615-92.79 13.894-9.703 25.502-21.411 34.827-35.116 9.332-13.699 13.993-28.07 13.993-43.105 0-12.564-4.523-23.319-13.565-32.264-9.041-8.947-19.749-13.418-32.117-13.418H45.679c-14.655 0-25.933 4.948-33.832 14.844C3.949 79.562 0 91.934 0 106.779c0 11.991 5.236 24.985 15.703 38.974 10.466 13.99 21.604 24.983 33.403 32.976z"/><path d="M483.072 209.275c-62.424 42.251-109.824 75.087-142.177 98.501-10.849 7.991-19.65 14.229-26.409 18.699-6.759 4.473-15.748 9.041-26.98 13.702-11.228 4.668-21.692 6.995-31.401 6.995h-.578c-9.707 0-20.177-2.327-31.405-6.995-11.228-4.661-20.223-9.229-26.98-13.702-6.755-4.47-15.559-10.708-26.407-18.699-25.697-18.842-72.995-51.68-141.896-98.501C17.987 202.047 8.375 193.762 0 184.437v226.685c0 12.57 4.471 23.319 13.418 32.265 8.945 8.949 19.701 13.422 32.264 13.422h420.266c12.56 0 23.315-4.473 32.261-13.422 8.949-8.949 13.418-19.694 13.418-32.265V184.437c-8.186 9.132-17.7 17.417-28.555 24.838z"/></symbol><symbol viewBox="0 0 511.626 511.626" id="envelope" xmlns="http://www.w3.org/2000/svg"><path d="M49.106 178.729c6.472 4.567 25.981 18.131 58.528 40.685 32.548 22.554 57.482 39.92 74.803 52.099 1.903 1.335 5.946 4.237 12.131 8.71 6.186 4.476 11.326 8.093 15.416 10.852 4.093 2.758 9.041 5.852 14.849 9.277 5.806 3.422 11.279 5.996 16.418 7.7 5.14 1.718 9.898 2.569 14.275 2.569h.575c4.377 0 9.137-.852 14.277-2.569 5.137-1.704 10.615-4.281 16.416-7.7 5.804-3.429 10.752-6.52 14.845-9.277 4.093-2.759 9.229-6.376 15.417-10.852 6.184-4.477 10.232-7.375 12.135-8.71 17.508-12.179 62.051-43.11 133.615-92.79 13.894-9.703 25.502-21.411 34.827-35.116 9.332-13.699 13.993-28.07 13.993-43.105 0-12.564-4.523-23.319-13.565-32.264-9.041-8.947-19.749-13.418-32.117-13.418H45.679c-14.655 0-25.933 4.948-33.832 14.844C3.949 79.562 0 91.934 0 106.779c0 11.991 5.236 24.985 15.703 38.974 10.466 13.99 21.604 24.983 33.403 32.976z"/><path d="M483.072 209.275c-62.424 42.251-109.824 75.087-142.177 98.501-10.849 7.991-19.65 14.229-26.409 18.699-6.759 4.473-15.748 9.041-26.98 13.702-11.228 4.668-21.692 6.995-31.401 6.995h-.578c-9.707 0-20.177-2.327-31.405-6.995-11.228-4.661-20.223-9.229-26.98-13.702-6.755-4.47-15.559-10.708-26.407-18.699-25.697-18.842-72.995-51.68-141.896-98.501C17.987 202.047 8.375 193.762 0 184.437v226.685c0 12.57 4.471 23.319 13.418 32.265 8.945 8.949 19.701 13.422 32.264 13.422h420.266c12.56 0 23.315-4.473 32.261-13.422 8.949-8.949 13.418-19.694 13.418-32.265V184.437c-8.186 9.132-17.7 17.417-28.555 24.838z"/></symbol><symbol viewBox="0 0 96.124 96.123" id="facebook-logo" xmlns="http://www.w3.org/2000/svg"><path d="M72.089.02L59.624 0C45.62 0 36.57 9.285 36.57 23.656v10.907H24.037a1.96 1.96 0 0 0-1.96 1.961v15.803a1.96 1.96 0 0 0 1.96 1.96H36.57v39.876a1.96 1.96 0 0 0 1.96 1.96h16.352a1.96 1.96 0 0 0 1.96-1.96V54.287h14.654a1.96 1.96 0 0 0 1.96-1.96l.006-15.803a1.963 1.963 0 0 0-1.961-1.961H56.842v-9.246c0-4.444 1.059-6.7 6.848-6.7l8.397-.003a1.96 1.96 0 0 0 1.959-1.96V1.98A1.96 1.96 0 0 0 72.089.02z"/></symbol><symbol viewBox="0 0 512 512" id="google-plus" xmlns="http://www.w3.org/2000/svg"><path d="M495.305 55.653h-38.956V16.696c0-9.22-7.475-16.696-16.696-16.696h-33.391c-9.22 0-16.696 7.475-16.696 16.696v38.956H350.61c-9.22 0-16.696 7.475-16.696 16.696v33.391c0 9.22 7.475 16.696 16.696 16.696h38.956v38.956c0 9.22 7.475 16.696 16.696 16.696h33.391c9.22 0 16.696-7.475 16.696-16.696v-38.956h38.956c9.22 0 16.696-7.475 16.696-16.696V72.348c-.001-9.22-7.476-16.695-16.696-16.695zM399.84 293.485c-.813-8.619-8.049-15.224-16.707-15.224H217.044c-9.22 0-16.696 7.475-16.696 16.696v33.391c0 9.22 7.475 16.696 16.696 16.696h112.64c-14.803 57.544-67.117 100.174-129.336 100.174-78.634 0-141.549-68.197-132.74-148.59 6.118-55.837 59.379-110.199 115.086-117.398 38.224-4.94 73.85 6.449 100.887 28.059 6.67 5.331 16.209 4.921 22.247-1.117l23.712-23.712c6.899-6.899 6.531-18.33-.956-24.585-34.778-29.057-79.514-46.569-128.237-46.569-117.979 0-212.577 102.68-199.059 223.311 10.417 92.952 86.398 167.565 179.508 176.45 107.571 10.263 200.17-65.251 217.005-166.022a195.036 195.036 0 0 0 2.894-33.391 193.398 193.398 0 0 0-.855-18.169z"/></symbol><symbol viewBox="0 0 66.137 66.137" id="heart-in-like-circular-button" xmlns="http://www.w3.org/2000/svg"><path d="M33.066 66.136C14.834 66.136 0 51.302 0 33.069 0 14.835 14.834.001 33.066.001c18.235 0 33.071 14.834 33.071 33.068 0 18.233-14.835 33.067-33.071 33.067zm0-62.135C17.039 4.001 4 17.041 4 33.069c0 16.027 13.039 29.066 29.066 29.066 16.03 0 29.071-13.039 29.071-29.066 0-16.028-13.041-29.068-29.071-29.068z"/><path d="M33.438 46.224a.656.656 0 0 1-.406.156.593.593 0 0 1-.406-.156l-9.344-9.375c-4.469-4.469-4.75-9.094-1.875-11.938 2.844-2.844 7.469-2.844 10.312 0a7.748 7.748 0 0 1 1.312 1.75 7.778 7.778 0 0 1 1.312-1.75c2.845-2.875 7.47-2.875 10.345 0 2.844 2.844 2.562 7.469-1.906 11.938l-9.344 9.375z"/></symbol><symbol viewBox="0 0 129 129" id="left-arrow-gc" xmlns="http://www.w3.org/2000/svg"><path d="M88.6 121.3c.8.8 1.8 1.2 2.9 1.2s2.1-.4 2.9-1.2c1.6-1.6 1.6-4.2 0-5.8l-51-51 51-51c1.6-1.6 1.6-4.2 0-5.8s-4.2-1.6-5.8 0l-54 53.9c-1.6 1.6-1.6 4.2 0 5.8l54 53.9z"/></symbol><symbol viewBox="0 0 512 512" id="left-arrow-in-a-circle" xmlns="http://www.w3.org/2000/svg"><path d="M256 0C114.609 0 0 114.609 0 256c0 141.391 114.609 256 256 256 141.391 0 256-114.609 256-256C512 114.609 397.391 0 256 0zm0 472c-119.297 0-216-96.703-216-216S136.703 40 256 40s216 96.703 216 216-96.703 216-216 216z"/><path d="M384 240H185.594L224 198.844 202.656 176 128 256l74.656 80L224 313.125 185.594 272H384z"/></symbol><symbol viewBox="0 0 430.117 430.117" id="linkedin" xmlns="http://www.w3.org/2000/svg"><path d="M430.117 261.543V420.56h-92.188V272.193c0-37.271-13.334-62.707-46.703-62.707-25.473 0-40.632 17.142-47.301 33.724-2.432 5.928-3.058 14.179-3.058 22.477V420.56h-92.219s1.242-251.285 0-277.32h92.21v39.309c-.187.294-.43.611-.606.896h.606v-.896c12.251-18.869 34.13-45.824 83.102-45.824 60.673-.001 106.157 39.636 106.157 124.818zM52.183 9.558C20.635 9.558 0 30.251 0 57.463c0 26.619 20.038 47.94 50.959 47.94h.616c32.159 0 52.159-21.317 52.159-47.94-.606-27.212-20-47.905-51.551-47.905zM5.477 420.56h92.184V143.24H5.477v277.32z"/></symbol><symbol viewBox="0 0 430.114 430.114" id="locate" xmlns="http://www.w3.org/2000/svg"><path d="M356.208 107.051c-1.531-5.738-4.64-11.852-6.94-17.205C321.746 23.704 261.611 0 213.055 0 148.054 0 76.463 43.586 66.905 133.427v18.355c0 .766.264 7.647.639 11.089 5.358 42.816 39.143 88.32 64.375 131.136 27.146 45.873 55.314 90.999 83.221 136.106 17.208-29.436 34.354-59.259 51.17-87.933 4.583-8.415 9.903-16.825 14.491-24.857 3.058-5.348 8.9-10.696 11.569-15.672 27.145-49.699 70.838-99.782 70.838-149.104v-20.262c.001-5.347-6.627-24.081-7-25.234zm-141.963 92.142c-19.107 0-40.021-9.554-50.344-35.939-1.538-4.2-1.414-12.617-1.414-13.388v-11.852c0-33.636 28.56-48.932 53.406-48.932 30.588 0 54.245 24.472 54.245 55.06 0 30.587-25.305 55.051-55.893 55.051z"/></symbol><symbol viewBox="0 0 430.114 430.114" id="location--s" xmlns="http://www.w3.org/2000/svg"><path d="M356.208 107.051c-1.531-5.738-4.64-11.852-6.94-17.205C321.746 23.704 261.611 0 213.055 0 148.054 0 76.463 43.586 66.905 133.427v18.355c0 .766.264 7.647.639 11.089 5.358 42.816 39.143 88.32 64.375 131.136 27.146 45.873 55.314 90.999 83.221 136.106 17.208-29.436 34.354-59.259 51.17-87.933 4.583-8.415 9.903-16.825 14.491-24.857 3.058-5.348 8.9-10.696 11.569-15.672 27.145-49.699 70.838-99.782 70.838-149.104v-20.262c.001-5.347-6.627-24.081-7-25.234zm-141.963 92.142c-19.107 0-40.021-9.554-50.344-35.939-1.538-4.2-1.414-12.617-1.414-13.388v-11.852c0-33.636 28.56-48.932 53.406-48.932 30.588 0 54.245 24.472 54.245 55.06 0 30.587-25.305 55.051-55.893 55.051z"/></symbol><symbol id="logo-Homeaway" viewBox="0 0 173.2 58.3" xmlns="http://www.w3.org/2000/svg"><style>.atst0{fill:#a0a0a0}</style><title>logo-isagenix</title><path class="atst0" d="M43.6 19.7v7.7h8.9v-7.7h2.4v18.4h-2.4v-8.6h-8.9v8.6h-2.4V19.7zm26.7 11.7c0 4.9-3.4 7-6.6 7-3.6 0-6.3-2.6-6.3-6.8 0-4.4 2.9-7 6.6-7 3.7 0 6.3 2.8 6.3 6.8m-10.5.1c0 2.9 1.7 5.1 4 5.1s4-2.2 4-5.1c0-2.2-1.1-5.1-4-5.1-2.8 0-4 2.6-4 5.1m12.9-3c0-1.4 0-2.5-.1-3.6h2.1l.1 2.1h.1c.7-1.3 2-2.4 4.2-2.4 1.8 0 3.2 1.1 3.7 2.6h.1c.4-.7.9-1.3 1.5-1.7.8-.6 1.7-.9 2.9-.9 1.7 0 4.3 1.1 4.3 5.7v7.8h-2.4v-7.5c0-2.5-.9-4.1-2.9-4.1-1.4 0-2.4 1-2.8 2.2-.1.3-.2.8-.2 1.2v8.2H81v-7.9c0-2.1-.9-3.6-2.8-3.6-1.5 0-2.6 1.2-3 2.4-.1.4-.2.8-.2 1.2v8h-2.4v-9.7zm23.5 3.3c.1 3.3 2.2 4.7 4.6 4.7 1.8 0 2.8-.3 3.7-.7l.4 1.8c-.9.4-2.3.9-4.5.9-4.2 0-6.6-2.8-6.6-6.8 0-4.1 2.4-7.3 6.3-7.3 4.4 0 5.6 3.9 5.6 6.4 0 .5-.1.9-.1 1.1h-9.4zm7.2-1.7c0-1.6-.6-4-3.4-4-2.5 0-3.6 2.3-3.8 4h7.2zm7.9 2.1l-2 5.9h-2.5l6.4-18.8h2.9l6.4 18.8H120l-2-5.9h-6.7zm6.2-1.9l-1.8-5.4c-.4-1.2-.7-2.3-1-3.4h-.1c-.3 1.1-.6 2.3-.9 3.4l-1.8 5.4h5.6zm7.5-5.7l1.8 6.9c.4 1.5.8 2.9 1 4.3h.1c.3-1.4.8-2.8 1.2-4.3l2.2-6.9h2.1l2.1 6.7c.5 1.6.9 3 1.2 4.4h.1c.2-1.4.6-2.8 1-4.4l1.9-6.8h2.4L137.8 38h-2.2l-2.1-6.4c-.5-1.5-.9-2.8-1.2-4.4h-.1c-.3 1.6-.8 3-1.2 4.5l-2.2 6.4h-2.2l-4.1-13.5h2.5zm28.3 10.3c0 1.2.1 2.3.2 3.2h-2.2l-.2-1.7h-.1c-.8 1.1-2.2 2-4.1 2-2.7 0-4.1-1.9-4.1-3.9 0-3.3 2.9-5 8.1-5v-.3c0-1.1-.3-3.1-3.1-3.1-1.3 0-2.6.4-3.5 1l-.6-1.6c1.1-.7 2.7-1.2 4.4-1.2 4.1 0 5.1 2.8 5.1 5.5v5.1zm-2.4-3.7c-2.7-.1-5.7.4-5.7 3 0 1.6 1.1 2.3 2.3 2.3 1.8 0 2.9-1.1 3.3-2.3.1-.3.1-.5.1-.8v-2.2zm6.3-6.6l3 8c.3.9.6 2 .9 2.8h.1c.2-.8.5-1.8.9-2.8l2.7-7.9h2.6l-3.7 9.6c-1.8 4.6-3 6.6-4.6 8.1-1.2 1.1-2.4 1.5-3 1.6l-.6-2.1c.6-.2 1.4-.6 2.1-1.2.7-.5 1.5-1.5 2.1-2.7.1-.3.2-.4.2-.6s-.1-.3-.2-.6l-5-12.1h2.5zM25.6 9.4h-16L.2 20.6h3.3v11.9l-2.5.3s-1.2.2-.9 1.5c.3.8 1.2.8 1.2.8l2.2-.3v3.3L19.3 41l12.6-2.8V20.7h3.7l-10-11.3zm-3.2 13.3l3.5-.2v4.6l-3.5.3v-4.7zM4.6 37.2v-2.5l6.9-.9s1.2 0 1.1-1.3c-.1-1.2-1.3-1-1.3-1l-6.7.8V20.6l7.2-9.1 7.5 9.1v19.3L4.6 37.2zm17.8-3.6v-4.7l3.5-.3v4.7l-3.5.3zm7.8-.7l-2.9.3v-4.6l2.9-.2v4.5zM27.3 27v-4.6l2.9-.1v4.5l-2.9.2z"/><path class="atst0" d="M14.9 20.7c-.8-.9-1.9-1.5-3.2-1.5h-.2c-1.2.1-2.3.7-3 1.7-.7 1-1.2 2.3-1.2 3.7v.4c.1 1.4.6 2.7 1.4 3.7.8.9 1.9 1.5 3.2 1.5h.2c1.2-.1 2.3-.7 3-1.7.7-1 1.2-2.3 1.2-3.7v-.4c0-1.4-.6-2.7-1.4-3.7m-.4 7.2c-.6.8-1.4 1.3-2.4 1.3H12c-.9 0-1.8-.5-2.5-1.2-.7-.8-1.1-1.9-1.2-3.1v-.3c0-1.2.4-2.3 1-3.1.6-.8 1.4-1.3 2.4-1.3h.1c.9 0 1.8.5 2.5 1.2.7.8 1.1 1.9 1.2 3.1v.3c-.1 1.2-.4 2.3-1 3.1"/><path class="atst0" d="M10.3 24.7c-.1-1.6.4-2.9 1.2-3.4-1.3.1-2.3 1.6-2.2 3.5.1 1.9 1.3 3.3 2.6 3.3-.8-.5-1.5-1.8-1.6-3.4m160.8 0c1.2 0 2.1.9 2.1 2.1 0 1.2-.9 2.1-2.2 2.1-1.2 0-2.2-.9-2.2-2.1.1-1.1 1-2.1 2.3-2.1zm-.1.4c-.9 0-1.6.8-1.6 1.7 0 .9.7 1.7 1.6 1.7.9 0 1.6-.7 1.6-1.7.1-.9-.6-1.7-1.6-1.7zm-.3 2.8h-.5v-2.1c.2 0 .5-.1.8-.1.4 0 .6.1.7.2.1.1.2.3.2.4 0 .2-.2.4-.4.5.2.1.3.2.4.5.1.3.1.4.2.5h-.5c-.1-.1-.1-.3-.2-.5 0-.2-.2-.3-.4-.3h-.2v.9zm0-1.2h.2c.3 0 .5-.1.5-.3 0-.2-.1-.3-.4-.3h-.3v.6z"/></symbol><symbol viewBox="0 0 328.135 328.135" id="night" xmlns="http://www.w3.org/2000/svg"><path d="M304.418 240.73a138.302 138.302 0 0 1-33.908 4.235c-62.244 0-117.103-41.999-133.408-102.142-12.699-46.871-.347-95.959 33.053-131.307L181.035 0l-15.829.681a164.7 164.7 0 0 0-35.92 5.54C42.126 29.865-9.565 120.002 14.06 207.175c19.306 71.222 84.269 120.959 157.984 120.959 14.435 0 28.882-1.934 42.944-5.746 40.264-10.919 74.526-36.511 96.473-72.051l8.336-13.49-15.379 3.883zm-92.797 69.262c-12.963 3.509-26.279 5.289-39.576 5.289-67.925 0-127.785-45.836-145.581-111.473C4.69 123.479 52.319 40.412 132.648 18.644a150.327 150.327 0 0 1 17.706-3.663c-28.516 37.276-38.124 85.22-25.656 131.217 17.815 65.727 77.784 111.628 145.812 111.628 7.095 0 14.197-.508 21.247-1.51-20.065 26.137-48.034 44.961-80.136 53.676zM178.78 83.041l31.517-8.953 9.64-31.299 8.959 31.504 31.312 9.647-31.524 8.96-9.64 31.305-8.953-31.504-31.311-9.66zm68.542 53.947l21.909-7.172 5.9-22.275 7.172 21.896 22.282 5.926-21.903 7.16-5.919 22.275-7.159-21.896-22.282-5.914z" data-original="#000000" class="auactive-path" data-old_color="#8fb7f7"/></symbol><symbol viewBox="0 0 348.077 348.077" id="phone" xmlns="http://www.w3.org/2000/svg"><path d="M340.273 275.083l-53.755-53.761c-10.707-10.664-28.438-10.34-39.518.744l-27.082 27.076a792.327 792.327 0 0 1-5.344-2.973c-17.102-9.476-40.509-22.464-65.14-47.113-24.704-24.701-37.704-48.144-47.209-65.257-1.003-1.813-1.964-3.561-2.913-5.221l18.176-18.149 8.936-8.947c11.097-11.1 11.403-28.826.721-39.521L73.39 8.194c-10.682-10.68-28.421-10.356-39.518.744l-15.15 15.237.414.411c-5.08 6.482-9.325 13.958-12.484 22.02C3.74 54.28 1.927 61.603 1.098 68.941-6 127.785 20.89 181.564 93.866 254.541c100.875 100.868 182.167 93.248 185.674 92.876 7.638-.913 14.958-2.738 22.397-5.627 7.992-3.122 15.463-7.361 21.941-12.43l.331.294 15.348-15.029c11.074-11.098 11.393-28.83.716-39.542z"/></symbol><symbol viewBox="0 0 52 52" id="placeholder" xmlns="http://www.w3.org/2000/svg"><path d="M38.853 5.324c-7.098-7.098-18.607-7.098-25.706 0C6.751 11.72 6.031 23.763 11.459 31L26 52l14.541-21c5.428-7.237 4.708-19.28-1.688-25.676zM26.177 24a6 6 0 1 1 0-12 6 6 0 0 1 0 12z"/></symbol><symbol viewBox="0 0 563.43 563.43" id="profile" xmlns="http://www.w3.org/2000/svg"><path d="M280.79 314.559c83.266 0 150.803-67.538 150.803-150.803S364.055 13.415 280.79 13.415 129.987 80.953 129.987 163.756s67.537 150.803 150.803 150.803zm0-261.824c61.061 0 111.021 49.959 111.021 111.021s-49.96 111.02-111.021 111.02-111.021-49.959-111.021-111.021 49.959-111.02 111.021-111.02zM19.891 550.015h523.648c11.102 0 19.891-8.789 19.891-19.891 0-104.082-84.653-189.198-189.198-189.198H189.198C85.116 340.926 0 425.579 0 530.124c0 11.102 8.789 19.891 19.891 19.891zm169.307-169.307h185.034c75.864 0 138.313 56.436 148.028 129.524H41.17c9.714-72.625 72.164-129.524 148.028-129.524z" data-original="#000000" class="axactive-path" data-old_color="#8fb7f7"/></symbol><symbol viewBox="0 0 129 129" id="right-arrow-gc" xmlns="http://www.w3.org/2000/svg"><path d="M40.4 121.3c-.8.8-1.8 1.2-2.9 1.2s-2.1-.4-2.9-1.2c-1.6-1.6-1.6-4.2 0-5.8l51-51-51-51c-1.6-1.6-1.6-4.2 0-5.8 1.6-1.6 4.2-1.6 5.8 0l53.9 53.9c1.6 1.6 1.6 4.2 0 5.8l-53.9 53.9z"/></symbol><symbol viewBox="0 0 129 129" id="right-arrow-in-a-cirlce" xmlns="http://www.w3.org/2000/svg"><path d="M121.3 34.6c-1.6-1.6-4.2-1.6-5.8 0l-51 51.1-51.1-51.1c-1.6-1.6-4.2-1.6-5.8 0-1.6 1.6-1.6 4.2 0 5.8l53.9 53.9c.8.8 1.8 1.2 2.9 1.2 1 0 2.1-.4 2.9-1.2l53.9-53.9c1.7-1.6 1.7-4.2.1-5.8z"/></symbol><symbol viewBox="0 0 31.49 31.49" id="right-arrow-small" xmlns="http://www.w3.org/2000/svg"><path d="M21.205 5.007a1.112 1.112 0 0 0-1.587 0 1.12 1.12 0 0 0 0 1.571l8.047 8.047H1.111A1.106 1.106 0 0 0 0 15.737c0 .619.492 1.127 1.111 1.127h26.554l-8.047 8.032c-.429.444-.429 1.159 0 1.587a1.112 1.112 0 0 0 1.587 0l9.952-9.952a1.093 1.093 0 0 0 0-1.571l-9.952-9.953z"/></symbol><symbol viewBox="0 0 31.49 31.49" id="right-arrow-small--blue" xmlns="http://www.w3.org/2000/svg"><path d="M21.205 5.007a1.112 1.112 0 0 0-1.587 0 1.12 1.12 0 0 0 0 1.571l8.047 8.047H1.111A1.106 1.106 0 0 0 0 15.737c0 .619.492 1.127 1.111 1.127h26.554l-8.047 8.032c-.429.444-.429 1.159 0 1.587a1.112 1.112 0 0 0 1.587 0l9.952-9.952a1.093 1.093 0 0 0 0-1.571l-9.952-9.953z"/></symbol><symbol viewBox="0 0 56.966 56.966" id="search" xmlns="http://www.w3.org/2000/svg"><path d="M55.146 51.887L41.588 37.786A22.926 22.926 0 0 0 46.984 23c0-12.682-10.318-23-23-23s-23 10.318-23 23 10.318 23 23 23c4.761 0 9.298-1.436 13.177-4.162l13.661 14.208c.571.593 1.339.92 2.162.92.779 0 1.518-.297 2.079-.837a3.004 3.004 0 0 0 .083-4.242zM23.984 6c9.374 0 17 7.626 17 17s-7.626 17-17 17-17-7.626-17-17 7.626-17 17-17z"/></symbol><symbol viewBox="0 0 512 512" id="shape" xmlns="http://www.w3.org/2000/svg"><path d="M208 304h96v-96h-96v96zm32-64h32v32h-32v-32z"/><path d="M512 96V0h-96v32H304V0h-96v32H96V0H0v96h32v112H0v96h32v112H0v96h96v-32h112v32h96v-32h112v32h96v-96h-32V304h32v-96h-32V96h32zM240 32h32v32h-32V32zM32 32h32v32H32V32zm0 208h32v32H32v-32zm32 240H32v-32h32v32zm208 0h-32v-32h32v32zm144-32H304v-32h-96v32H96v-32H64V304h32v-96H64V96h32V64h112v32h96V64h112v32h32v112h-32v96h32v112h-32v32zm64 32h-32v-32h32v32zm0-208h-32v-32h32v32zM448 64V32h32v32h-32z"/></symbol><symbol id="tripadvisor" viewBox="0 0 163.6 51" xmlns="http://www.w3.org/2000/svg"><style>.best0{fill:none}.best1{fill:#fff}.best2{fill:#589441}.best3{fill:#feda80}.st4{fill:none;stroke:#5f6f72;stroke-width:7.7708}.best5{fill:#a61e2e}.best6{fill:#4a853e}.best7{fill:#020202}</style><path class="best0" d="M0 0h163.6v51H0z"/><path class="best0" d="M0 0h163.6v51H0z"/><path class="best1" d="M60 40.5c-6.3 0-11.3-5.1-11.3-11.3 0-6.3 5.1-11.3 11.3-11.3 6.3 0 11.3 5.1 11.3 11.3 0 6.2-5 11.3-11.3 11.3m22.9-1.4c-5.8 0-10.5-4.6-10.5-10.3 0-5.7 4.7-10.3 10.5-10.3s10.5 4.6 10.5 10.3c0 5.7-4.7 10.3-10.5 10.3m22.7.7c-5.9 0-10.6-4.6-10.6-10.3 0-5.7 4.8-10.3 10.6-10.3 5.9 0 10.6 4.6 10.6 10.3 0 5.7-4.8 10.3-10.6 10.3m22.4.7c-6.3 0-11.3-5.1-11.3-11.3 0-6.3 5.1-11.3 11.3-11.3s11.3 5.1 11.3 11.3c.1 6.2-5 11.3-11.3 11.3m23-.7c-5.9 0-10.7-4.7-10.7-10.5s4.8-10.5 10.7-10.5c5.9 0 10.7 4.7 10.7 10.5s-4.8 10.5-10.7 10.5"/><path class="best2" d="M60 20.1c-5 0-9 4-9 9s4 9 9 9 9-4 9-9c0-4.9-4-9-9-9m0 20.4c-6.3 0-11.3-5.1-11.3-11.3 0-6.3 5.1-11.3 11.3-11.3 6.3 0 11.3 5.1 11.3 11.3 0 6.2-5 11.3-11.3 11.3m22.7-20.4c-5 0-9 4-9 9s4.1 9 9 9 9-4 9-9c0-4.9-4-9-9-9m0 20.4c-6.3 0-11.3-5.1-11.3-11.3 0-6.3 5.1-11.3 11.3-11.3S94 22.9 94 29.1c0 6.3-5.1 11.4-11.3 11.4m22.7-20.4c-5 0-9 4-9 9s4.1 9 9 9 9-4 9-9c0-4.9-4.1-9-9-9m0 20.4c-6.3 0-11.3-5.1-11.3-11.3 0-6.3 5.1-11.3 11.3-11.3 6.3 0 11.3 5.1 11.3 11.3 0 6.2-5.1 11.3-11.3 11.3M128 20.1c-5 0-9 4-9 9s4 9 9 9 9-4 9-9c.1-4.9-4-9-9-9m0 20.4c-6.3 0-11.3-5.1-11.3-11.3 0-6.3 5.1-11.3 11.3-11.3s11.3 5.1 11.3 11.3c.1 6.2-5 11.3-11.3 11.3m22.7-20.4c-5 0-9 4-9 9s4.1 9 9 9c5 0 9-4 9-9 0-4.9-4-9-9-9m0 20.4c-6.3 0-11.3-5.1-11.3-11.3 0-6.3 5.1-11.3 11.3-11.3 6.3 0 11.3 5.1 11.3 11.3.1 6.2-5 11.3-11.3 11.3"/><path class="best3" d="M10.1 19.2c4.2-.5 16-.9 12.7 16.1l3.7-.3c-1.6-10.5 1.8-15.9 12.3-16.4-17.5-9.6-27.4.4-28.7.6z"/><path class="best1" d="M26.3 32.6c1.9 5.2 7.7 7.8 12.8 5.9 5.2-1.9 7.8-7.7 5.9-12.8-1.9-5.2-7.7-7.8-12.8-5.9-5.1 1.9-7.8 7.6-5.9 12.8zm-2.8-3.5c0 5.5-4.5 10-10 10s-10-4.5-10-10 4.5-10 10-10c5.6 0 10 4.5 10 10z"/><path class="best5" d="M15.3 29c0 1-.8 1.8-1.8 1.8s-1.8-.8-1.8-1.8.8-1.8 1.8-1.8c.9 0 1.8.8 1.8 1.8z"/><path class="best6" d="M37.5 29c0 1-.8 1.8-1.8 1.8s-1.8-.8-1.8-1.8.8-1.8 1.8-1.8 1.8.8 1.8 1.8z"/><path class="best7" d="M44.6 22.5c.5-2.2 2.2-4.4 2.2-4.4h-7.4c-4.2-2.7-9.2-4.1-14.8-4.1-5.8 0-11 1.5-15.2 4.2h-7s1.6 2.2 2.2 4.4c-1.4 1.8-2.2 4.1-2.2 6.6 0 6.1 5 11.1 11.1 11.1 3.5 0 6.6-1.6 8.7-4.2l2.4 3.5L27 36c1.1 1.4 2.5 2.5 4.1 3.2 2.7 1.2 5.7 1.4 8.5.3 5.7-2.1 8.7-8.5 6.6-14.3-.5-.9-1-1.8-1.6-2.7zm-9.3-4.4c-1.2 0-2.3.2-3.5.7-2.8 1-5 3.1-6.2 5.8-.6 1.2-.9 2.5-1 3.8-.4-5.7-5.1-10.2-10.8-10.3C17 16.7 20.6 16 24.6 16c4-.1 7.6.6 10.7 2.1zM13.6 38c-4.9 0-8.9-4-8.9-8.9s4-8.9 8.9-8.9 8.9 4 8.9 8.9c-.1 4.9-4.1 8.9-8.9 8.9zm25.2-.5c-2.2.8-4.6.7-6.8-.3-2.1-1-3.8-2.8-4.6-5-.8-2.2-.7-4.6.3-6.8s2.8-3.8 5-4.6c4.6-1.7 9.7.7 11.4 5.2 1.6 4.7-.8 9.8-5.3 11.5z"/><path class="best7" d="M13.4 23.5c-3 0-5.5 2.5-5.5 5.5s2.5 5.5 5.5 5.5 5.5-2.5 5.5-5.5-2.5-5.5-5.5-5.5zm0 9.1c-2 0-3.6-1.6-3.6-3.6s1.6-3.6 3.6-3.6S17 27 17 29s-1.6 3.6-3.6 3.6zm22.3-9.1c-3 0-5.5 2.5-5.5 5.5s2.5 5.5 5.5 5.5 5.5-2.5 5.5-5.5c-.1-3-2.5-5.5-5.5-5.5zm0 9.1c-2 0-3.6-1.6-3.6-3.6s1.6-3.6 3.6-3.6 3.6 1.6 3.6 3.6-1.6 3.6-3.6 3.6z"/><path class="best1" d="M60.2 39.8c-5.8 0-10.5-4.7-10.5-10.5s4.7-10.5 10.5-10.5 10.5 4.7 10.5 10.5S66 39.8 60.2 39.8"/><path class="best2" d="M53.5 29.2c0 3.6 2.9 6.5 6.5 6.5s6.5-2.9 6.5-6.5-2.9-6.5-6.5-6.5-6.5 2.9-6.5 6.5"/><path class="best2" d="M60 20.1c-5 0-9 4-9 9s4 9 9 9 9-4 9-9c0-4.9-4-9-9-9m0 20.4c-6.3 0-11.3-5.1-11.3-11.3S53.8 17.8 60 17.8c6.3 0 11.3 5.1 11.3 11.3 0 6.3-5 11.4-11.3 11.4M76.2 29c0 3.6 2.9 6.5 6.5 6.5s6.5-2.9 6.5-6.5-2.9-6.5-6.5-6.5-6.5 2.9-6.5 6.5m22.7.2c0 3.6 2.9 6.5 6.5 6.5s6.5-2.9 6.5-6.5-2.9-6.5-6.5-6.5-6.5 2.9-6.5 6.5m51.8-9.1c-5 0-9 4-9 9s4.1 9 9 9 9-4 9-9c0-4.9-4-9-9-9m0 20.4c-6.3 0-11.3-5.1-11.3-11.3 0-6.3 5.1-11.3 11.3-11.3S162 23 162 29.2c.1 6.2-5 11.3-11.3 11.3"/><path class="best1" d="M128.1 39.8c-5.9 0-10.8-4.7-10.8-10.5s4.8-10.5 10.8-10.5c5.9 0 10.7 4.7 10.7 10.5s-4.8 10.5-10.7 10.5"/><path class="best2" d="M121.5 29.2c0 3.6 2.9 6.5 6.5 6.5s6.5-2.9 6.5-6.5-2.9-6.5-6.5-6.5-6.5 2.9-6.5 6.5"/><path class="best2" d="M128 20.2c-5 0-9 4-9 9s4.1 9 9 9c5 0 9-4 9-9 .1-5-4-9-9-9m0 20.3c-6.3 0-11.3-5.1-11.3-11.3 0-6.3 5.1-11.3 11.3-11.3 6.3 0 11.3 5.1 11.3 11.3.1 6.2-5 11.3-11.3 11.3m16.2-11.3c0 3.6 2.9 6.5 6.5 6.5v-13c-3.6 0-6.5 2.9-6.5 6.5"/></symbol><symbol viewBox="0 0 310 310" id="twitter" xmlns="http://www.w3.org/2000/svg"><path d="M302.973 57.388a117.512 117.512 0 0 1-14.993 5.463 66.276 66.276 0 0 0 13.494-23.73 5 5 0 0 0-7.313-5.824 117.994 117.994 0 0 1-34.878 13.783c-12.381-12.098-29.197-18.983-46.581-18.983-36.695 0-66.549 29.853-66.549 66.547 0 2.89.183 5.764.545 8.598C101.163 99.244 58.83 76.863 29.76 41.204a5.001 5.001 0 0 0-8.196.642c-5.896 10.117-9.013 21.688-9.013 33.461 0 16.035 5.725 31.249 15.838 43.137a56.37 56.37 0 0 1-8.907-3.977 5 5 0 0 0-7.427 4.257c-.007.295-.007.59-.007.889 0 23.935 12.882 45.484 32.577 57.229a57.372 57.372 0 0 1-5.063-.735 4.998 4.998 0 0 0-5.699 6.437c7.29 22.76 26.059 39.501 48.749 44.605-18.819 11.787-40.34 17.961-62.932 17.961a120.4 120.4 0 0 1-14.095-.826 5 5 0 0 0-3.286 9.174c29.023 18.609 62.582 28.445 97.047 28.445 67.754 0 110.139-31.95 133.764-58.753 29.46-33.421 46.356-77.658 46.356-121.367 0-1.826-.028-3.67-.084-5.508 11.623-8.757 21.63-19.355 29.773-31.536a5 5 0 0 0-6.182-7.351z"/></symbol><symbol viewBox="0 0 512 512" id="uk" xmlns="http://www.w3.org/2000/svg"><path d="M0 85.333h15v15H0zM288 85.33h-64v138.666H0v64h224v138.666h64V287.996h224v-64H288z"/><path d="M393.785 315.358L512 381.034v-65.676zm-82.133 0L512 426.662v-31.474l-143.693-79.83zm146.982 111.304l-146.982-81.664v81.664z"/><path d="M311.652 315.358L512 426.662v-31.474l-143.693-79.83z"/><path d="M311.652 315.358L512 426.662v-31.474l-143.693-79.83zM90.341 315.356L0 365.546v-50.19zm110.007 14.154v97.151H25.491zM143.693 315.358L0 395.188v31.474l200.348-111.304zM118.215 196.634L0 130.958v65.676zm82.133 0L0 85.33v31.474l143.693 79.83zM53.366 85.33l146.982 81.664V85.33z"/><path d="M200.348 196.634L0 85.33v31.474l143.693 79.83z"/><path d="M200.348 196.634L0 85.33v31.474l143.693 79.83zM421.659 196.636L512 146.446v50.19zm-110.007-14.154V85.331h174.857zM368.307 196.634L512 116.804V85.33L311.652 196.634z"/></symbol></svg>